<?xml version="1.0" encoding="UTF-8"?>
<svg version="1.1" xmlns="http://www.w3.org/2000/svg" width="50" height="50">
<path d="M0 0 C1.37152222 -0.00945648 1.37152222 -0.00945648 2.77075195 -0.019104 C3.76034912 -0.01505554 4.74994629 -0.01100708 5.76953125 -0.00683594 C6.78297607 -0.00874939 7.7964209 -0.01066284 8.84057617 -0.01263428 C10.98584237 -0.01399685 13.13111678 -0.01029541 15.27636719 -0.00195312 C18.56854697 0.00874524 21.86018103 -0.00184613 25.15234375 -0.01464844 C27.23307413 -0.01332686 29.31380416 -0.01076449 31.39453125 -0.00683594 C32.38412842 -0.0108844 33.37372559 -0.01493286 34.39331055 -0.019104 C35.30765869 -0.01279968 36.22200684 -0.00649536 37.1640625 0 C38.37412964 0.00238678 38.37412964 0.00238678 39.60864258 0.00482178 C41.58203125 0.25878906 41.58203125 0.25878906 43.58203125 2.25878906 C43.84082031 5.20800781 43.84082031 5.20800781 43.84765625 8.94628906 C43.85052643 9.93375122 43.85052643 9.93375122 43.85345459 10.94116211 C43.85481575 12.33317446 43.85112408 13.72519953 43.84277344 15.1171875 C43.83207225 17.25061495 43.84267031 19.38320037 43.85546875 21.51660156 C43.85414714 22.86816593 43.85158472 24.21972976 43.84765625 25.57128906 C43.84540039 26.80492188 43.84314453 28.03855469 43.84082031 29.30957031 C43.58203125 32.25878906 43.58203125 32.25878906 41.58203125 34.25878906 C39.21693764 34.55938849 36.83761244 34.75393918 34.45703125 34.88378906 C33.17570312 34.95855469 31.894375 35.03332031 30.57421875 35.11035156 C29.58679687 35.15933594 28.599375 35.20832031 27.58203125 35.25878906 C27.58203125 35.91878906 27.58203125 36.57878906 27.58203125 37.25878906 C29.23203125 37.25878906 30.88203125 37.25878906 32.58203125 37.25878906 C32.25203125 38.90878906 31.92203125 40.55878906 31.58203125 42.25878906 C23.00203125 42.25878906 14.42203125 42.25878906 5.58203125 42.25878906 C5.25203125 40.60878906 4.92203125 38.95878906 4.58203125 37.25878906 C6.23203125 37.25878906 7.88203125 37.25878906 9.58203125 37.25878906 C9.58203125 36.59878906 9.58203125 35.93878906 9.58203125 35.25878906 C8.59460937 35.20980469 7.6071875 35.16082031 6.58984375 35.11035156 C5.30851563 35.03558594 4.0271875 34.96082031 2.70703125 34.88378906 C1.43085937 34.81417969 0.1546875 34.74457031 -1.16015625 34.67285156 C-4.41796875 34.25878906 -4.41796875 34.25878906 -6.41796875 32.25878906 C-6.67675781 29.30957031 -6.67675781 29.30957031 -6.68359375 25.57128906 C-6.6855072 24.91298096 -6.68742065 24.25467285 -6.68939209 23.57641602 C-6.69075325 22.18440366 -6.68706158 20.79237859 -6.67871094 19.40039062 C-6.66800975 17.26696317 -6.67860781 15.13437776 -6.69140625 13.00097656 C-6.69008464 11.6494122 -6.68752222 10.29784836 -6.68359375 8.94628906 C-6.68133789 7.71265625 -6.67908203 6.47902344 -6.67675781 5.20800781 C-6.25510579 0.40276585 -4.35650562 0.00859293 0 0 Z M-1.41796875 2.25878906 C-1.41796875 2.58878906 -1.41796875 2.91878906 -1.41796875 3.25878906 C11.78203125 3.25878906 24.98203125 3.25878906 38.58203125 3.25878906 C38.58203125 2.92878906 38.58203125 2.59878906 38.58203125 2.25878906 C25.38203125 2.25878906 12.18203125 2.25878906 -1.41796875 2.25878906 Z M-1.41796875 5.25878906 C-1.41796875 12.51878906 -1.41796875 19.77878906 -1.41796875 27.25878906 C2.12877128 28.44103574 4.5572612 28.1520854 8.26953125 27.82128906 C9.44902344 27.71945313 10.62851562 27.61761719 11.84375 27.51269531 C12.74738281 27.42890625 13.65101562 27.34511719 14.58203125 27.25878906 C14.14890625 26.8346875 13.71578125 26.41058594 13.26953125 25.97363281 C10.27044223 22.81487007 8.70285817 21.03745143 8.01953125 16.63378906 C8.98495785 10.84122947 10.88853875 8.77890843 15.58203125 5.25878906 C9.97203125 5.25878906 4.36203125 5.25878906 -1.41796875 5.25878906 Z M21.58203125 5.25878906 C23.23203125 6.57878906 24.88203125 7.89878906 26.58203125 9.25878906 C29.1016293 12.73823399 29.02347252 16.065097 28.58203125 20.25878906 C26.78776982 22.95018121 24.85968952 24.9811308 22.58203125 27.25878906 C28.85203125 27.25878906 35.12203125 27.25878906 41.58203125 27.25878906 C41.58203125 26.59878906 41.58203125 25.93878906 41.58203125 25.25878906 C40.59203125 25.25878906 39.60203125 25.25878906 38.58203125 25.25878906 C38.58203125 18.65878906 38.58203125 12.05878906 38.58203125 5.25878906 C32.97203125 5.25878906 27.36203125 5.25878906 21.58203125 5.25878906 Z M10.58203125 12.25878906 C11.58203125 14.25878906 11.58203125 14.25878906 11.58203125 14.25878906 Z M14.58203125 12.25878906 C14.25203125 13.24878906 13.92203125 14.23878906 13.58203125 15.25878906 C14.24203125 15.25878906 14.90203125 15.25878906 15.58203125 15.25878906 C15.25203125 14.26878906 14.92203125 13.27878906 14.58203125 12.25878906 Z M21.58203125 12.25878906 C21.58203125 13.24878906 21.58203125 14.23878906 21.58203125 15.25878906 C22.24203125 15.25878906 22.90203125 15.25878906 23.58203125 15.25878906 C23.25203125 14.26878906 22.92203125 13.27878906 22.58203125 12.25878906 C22.25203125 12.25878906 21.92203125 12.25878906 21.58203125 12.25878906 Z M25.58203125 12.25878906 C26.58203125 14.25878906 26.58203125 14.25878906 26.58203125 14.25878906 Z M17.58203125 13.25878906 C17.58203125 13.91878906 17.58203125 14.57878906 17.58203125 15.25878906 C18.24203125 15.25878906 18.90203125 15.25878906 19.58203125 15.25878906 C19.58203125 14.59878906 19.58203125 13.93878906 19.58203125 13.25878906 C18.92203125 13.25878906 18.26203125 13.25878906 17.58203125 13.25878906 Z M13.58203125 17.25878906 C13.58203125 18.24878906 13.58203125 19.23878906 13.58203125 20.25878906 C14.24203125 20.25878906 14.90203125 20.25878906 15.58203125 20.25878906 C15.58203125 19.26878906 15.58203125 18.27878906 15.58203125 17.25878906 C14.92203125 17.25878906 14.26203125 17.25878906 13.58203125 17.25878906 Z M17.58203125 17.25878906 C17.58203125 18.24878906 17.58203125 19.23878906 17.58203125 20.25878906 C18.24203125 20.25878906 18.90203125 20.25878906 19.58203125 20.25878906 C19.58203125 19.26878906 19.58203125 18.27878906 19.58203125 17.25878906 C18.92203125 17.25878906 18.26203125 17.25878906 17.58203125 17.25878906 Z M21.58203125 17.25878906 C21.58203125 18.24878906 21.58203125 19.23878906 21.58203125 20.25878906 C22.24203125 20.25878906 22.90203125 20.25878906 23.58203125 20.25878906 C23.58203125 19.26878906 23.58203125 18.27878906 23.58203125 17.25878906 C22.92203125 17.25878906 22.26203125 17.25878906 21.58203125 17.25878906 Z M10.58203125 18.25878906 C11.58203125 20.25878906 11.58203125 20.25878906 11.58203125 20.25878906 Z M25.58203125 18.25878906 C26.58203125 20.25878906 26.58203125 20.25878906 26.58203125 20.25878906 Z M-4.41796875 29.25878906 C-2.83412395 32.39384079 -2.83412395 32.39384079 -0.59643555 32.63973999 C0.50704224 32.64332016 0.50704224 32.64332016 1.6328125 32.64697266 C2.46707764 32.65642914 3.30134277 32.66588562 4.16088867 32.67562866 C5.06299072 32.66955597 5.96509277 32.66348328 6.89453125 32.65722656 C7.81919189 32.66009674 8.74385254 32.66296692 9.6965332 32.66592407 C11.65348929 32.66796756 13.61046568 32.66241788 15.56738281 32.64990234 C18.57012418 32.63385271 21.57151946 32.64974143 24.57421875 32.66894531 C26.47265923 32.66696293 28.37109888 32.66311936 30.26953125 32.65722656 C31.62268433 32.6663356 31.62268433 32.6663356 33.00317383 32.67562866 C33.83743896 32.66617218 34.6717041 32.6567157 35.53125 32.64697266 C36.26690186 32.64458588 37.00255371 32.6421991 37.76049805 32.63973999 C39.99818645 32.39384079 39.99818645 32.39384079 41.58203125 29.25878906 C26.40203125 29.25878906 11.22203125 29.25878906 -4.41796875 29.25878906 Z M12.58203125 34.25878906 C12.58203125 35.24878906 12.58203125 36.23878906 12.58203125 37.25878906 C16.54203125 37.25878906 20.50203125 37.25878906 24.58203125 37.25878906 C24.58203125 36.26878906 24.58203125 35.27878906 24.58203125 34.25878906 C20.62203125 34.25878906 16.66203125 34.25878906 12.58203125 34.25878906 Z M7.58203125 39.25878906 C7.58203125 39.58878906 7.58203125 39.91878906 7.58203125 40.25878906 C14.84203125 40.25878906 22.10203125 40.25878906 29.58203125 40.25878906 C29.58203125 39.92878906 29.58203125 39.59878906 29.58203125 39.25878906 C22.32203125 39.25878906 15.06203125 39.25878906 7.58203125 39.25878906 Z " fill="#030303" transform="translate(6.41796875,3.7412109375)"/>
</svg>
