<?xml version="1.0" standalone="no"?>
<!DOCTYPE svg PUBLIC "-//W3C//DTD SVG 20010904//EN"
 "http://www.w3.org/TR/2001/REC-SVG-20010904/DTD/svg10.dtd">
<svg version="1.0" xmlns="http://www.w3.org/2000/svg"
 width="50.000000pt" height="45.000000pt" viewBox="0 0 50.000000 45.000000"
 preserveAspectRatio="xMidYMid meet">

<g transform="translate(0.000000,45.000000) scale(0.100000,-0.100000)"
fill="#000000" stroke="none">
<path d="M150 430 c0 -5 -8 -6 -17 -3 -15 6 -16 4 -5 -9 10 -13 10 -17 0 -21
-9 -4 -8 -6 3 -6 10 -1 15 -10 15 -23 -1 -19 4 -22 23 -20 24 4 24 3 8 -22 -9
-14 -17 -42 -17 -62 l0 -36 -19 23 -19 24 -12 -30 c-6 -16 -21 -41 -33 -54
-17 -19 -18 -23 -5 -18 9 3 19 1 22 -6 3 -9 5 -9 5 0 1 7 8 10 16 7 8 -4 15
-2 15 4 0 6 -5 12 -12 14 -7 3 -9 12 -5 22 6 15 10 16 23 5 12 -9 14 -24 9
-64 -6 -47 -5 -54 16 -69 31 -21 50 -20 104 6 59 29 100 18 100 -27 0 -28 -3
-30 -35 -30 -43 0 -55 30 -18 44 22 9 22 10 2 10 -26 1 -48 -23 -40 -44 8 -22
51 -39 81 -31 53 14 49 84 -7 107 -25 10 -39 9 -82 -5 -60 -21 -89 -18 -94 6
-4 23 50 78 56 58 3 -8 0 -16 -6 -18 -7 -2 -12 -8 -12 -14 0 -6 7 -8 15 -4 8
3 15 0 15 -7 1 -7 6 -2 13 11 7 12 16 19 21 15 4 -4 4 0 0 10 -3 9 -10 14 -15
11 -5 -3 -9 -1 -9 5 0 5 5 13 10 16 18 11 10 23 -12 17 -18 -4 -20 -2 -15 19
4 13 7 34 7 47 0 27 16 29 23 3 4 -15 11 -18 27 -14 15 4 21 2 17 -4 -4 -6 4
-10 18 -10 14 0 22 3 19 8 -3 5 0 9 5 9 6 0 11 4 11 10 0 5 -7 7 -15 4 -11 -5
-14 -2 -8 12 6 18 6 18 -14 2 -26 -24 -40 -23 -48 3 -9 27 10 40 45 33 17 -4
34 1 50 15 24 21 25 21 6 36 -27 21 -85 19 -110 -4 -28 -25 -106 -35 -106 -14
0 9 6 13 15 9 8 -3 15 -1 15 3 0 5 -6 12 -12 14 -10 4 -10 6 0 6 6 1 12 5 12
11 0 5 -7 6 -17 3 -11 -4 -14 -3 -9 5 4 7 2 12 -3 12 -6 0 -11 -4 -11 -10z
m218 -52 c2 -11 -3 -18 -12 -18 -9 0 -16 5 -16 10 0 12 -27 14 -32 3 -1 -5
-19 -16 -40 -27 -36 -18 -46 -42 -49 -121 0 -11 -14 -30 -30 -43 l-29 -24 0
31 c0 17 5 31 10 31 6 0 10 20 10 44 0 26 6 48 15 56 8 7 15 19 15 26 0 8 10
14 23 14 13 0 32 9 42 20 24 27 88 25 93 -2z"/>
<path d="M295 310 c3 -5 8 -10 11 -10 2 0 4 5 4 10 0 6 -5 10 -11 10 -5 0 -7
-4 -4 -10z"/>
<path d="M74 221 c4 -5 1 -12 -4 -14 -6 -3 -5 -4 2 -3 15 3 23 26 8 26 -6 0
-9 -4 -6 -9z"/>
</g>
</svg>
